name ../AP_Laxity/ap_75.mot
datacolumns   7
datarows 75
range   7.00000000 7.74000000
cursor 1.0 1.0 0.0
keys m_key
wrap
enforce_loops no
enforce_constraints no
calc_derivatives -1.000000
event_color 0.000000 0.000000 0.000000
endheader
            time femur_r_force_vx femur_r_force_vy femur_r_force_vz femur_r_force_px femur_r_force_py femur_r_force_pz 
      7.00000000     -23.25660597      86.79483510       0.00000000      -0.06780825      -0.46560544       0.00000000 
      7.01000000     -23.29544230      86.93977424       0.00000000      -0.06780825      -0.46560544       0.00000000 
      7.02000000     -23.33402114      87.08375244       0.00000000      -0.06780825      -0.46560544       0.00000000 
      7.03000000     -23.37234154      87.22676613       0.00000000      -0.06780825      -0.46560544       0.00000000 
      7.04000000     -23.41040255      87.36881175       0.00000000      -0.06780825      -0.46560544       0.00000000 
      7.05000000     -23.44820322      87.50988577       0.00000000      -0.06780825      -0.46560544       0.00000000 
      7.06000000     -23.48574261      87.64998467       0.00000000      -0.06780825      -0.46560544       0.00000000 
      7.07000000     -23.52301978      87.78910498       0.00000000      -0.06780825      -0.46560544       0.00000000 
      7.08000000     -23.56003382      87.92724323       0.00000000      -0.06780825      -0.46560544       0.00000000 
      7.09000000     -23.59678379      88.06439599       0.00000000      -0.06780825      -0.46560544       0.00000000 
      7.10000000     -23.63326878      88.20055985       0.00000000      -0.06780825      -0.46560544       0.00000000 
      7.11000000     -23.66948790      88.33573143       0.00000000      -0.06780825      -0.46560544       0.00000000 
      7.12000000     -23.70544023      88.46990736       0.00000000      -0.06780825      -0.46560544       0.00000000 
      7.13000000     -23.74112488      88.60308430       0.00000000      -0.06780825      -0.46560544       0.00000000 
      7.14000000     -23.77654097      88.73525895       0.00000000      -0.06780825      -0.46560544       0.00000000 
      7.15000000     -23.81168762      88.86642801       0.00000000      -0.06780825      -0.46560544       0.00000000 
      7.16000000     -23.84656395      88.99658823       0.00000000      -0.06780825      -0.46560544       0.00000000 
      7.17000000     -23.88116908      89.12573637       0.00000000      -0.06780825      -0.46560544       0.00000000 
      7.18000000     -23.91550218      89.25386922       0.00000000      -0.06780825      -0.46560544       0.00000000 
      7.19000000     -23.94956237      89.38098358       0.00000000      -0.06780825      -0.46560544       0.00000000 
      7.20000000     -23.98334881      89.50707631       0.00000000      -0.06780825      -0.46560544       0.00000000 
      7.21000000     -24.01686067      89.63214426       0.00000000      -0.06780825      -0.46560544       0.00000000 
      7.22000000     -24.05009711      89.75618433       0.00000000      -0.06780825      -0.46560544       0.00000000 
      7.23000000     -24.08305729      89.87919343       0.00000000      -0.06780825      -0.46560544       0.00000000 
      7.24000000     -24.11574042      90.00116849       0.00000000      -0.06780825      -0.46560544       0.00000000 
      7.25000000     -24.14814566      90.12210650       0.00000000      -0.06780825      -0.46560544       0.00000000 
      7.26000000     -24.18027221      90.24200444       0.00000000      -0.06780825      -0.46560544       0.00000000 
      7.27000000     -24.21211928      90.36085933       0.00000000      -0.06780825      -0.46560544       0.00000000 
      7.28000000     -24.24368608      90.47866821       0.00000000      -0.06780825      -0.46560544       0.00000000 
      7.29000000     -24.27497181      90.59542815       0.00000000      -0.06780825      -0.46560544       0.00000000 
      7.30000000     -24.30597571      90.71113626       0.00000000      -0.06780825      -0.46560544       0.00000000 
      7.31000000     -24.33669699      90.82578965       0.00000000      -0.06780825      -0.46560544       0.00000000 
      7.32000000     -24.36713490      90.93938547       0.00000000      -0.06780825      -0.46560544       0.00000000 
      7.33000000     -24.39728868      91.05192091       0.00000000      -0.06780825      -0.46560544       0.00000000 
      7.34000000     -24.42715757      91.16339315       0.00000000      -0.06780825      -0.46560544       0.00000000 
      7.35000000     -24.45674085      91.27379943       0.00000000      -0.06780825      -0.46560544       0.00000000 
      7.36000000     -24.48603776      91.38313700       0.00000000      -0.06780825      -0.46560544       0.00000000 
      7.37000000     -24.51504759      91.49140314       0.00000000      -0.06780825      -0.46560544       0.00000000 
      7.38000000     -24.54376960      91.59859517       0.00000000      -0.06780825      -0.46560544       0.00000000 
      7.39000000     -24.57220310      91.70471041       0.00000000      -0.06780825      -0.46560544       0.00000000 
      7.40000000     -24.60034736      91.80974622       0.00000000      -0.06780825      -0.46560544       0.00000000 
      7.41000000     -24.62820169      91.91370001       0.00000000      -0.06780825      -0.46560544       0.00000000 
      7.42000000     -24.65576540      92.01656917       0.00000000      -0.06780825      -0.46560544       0.00000000 
      7.43000000     -24.68303780      92.11835115       0.00000000      -0.06780825      -0.46560544       0.00000000 
      7.44000000     -24.71001821      92.21904343       0.00000000      -0.06780825      -0.46560544       0.00000000 
      7.45000000     -24.73670597      92.31864349       0.00000000      -0.06780825      -0.46560544       0.00000000 
      7.46000000     -24.76310041      92.41714887       0.00000000      -0.06780825      -0.46560544       0.00000000 
      7.47000000     -24.78920086      92.51455710       0.00000000      -0.06780825      -0.46560544       0.00000000 
      7.48000000     -24.81500669      92.61086577       0.00000000      -0.06780825      -0.46560544       0.00000000 
      7.49000000     -24.84051726      92.70607249       0.00000000      -0.06780825      -0.46560544       0.00000000 
      7.50000000     -24.86573192      92.80017488       0.00000000      -0.06780825      -0.46560544       0.00000000 
      7.51000000     -24.89065005      92.89317061       0.00000000      -0.06780825      -0.46560544       0.00000000 
      7.52000000     -24.91527103      92.98505736       0.00000000      -0.06780825      -0.46560544       0.00000000 
      7.53000000     -24.93959425      93.07583286       0.00000000      -0.06780825      -0.46560544       0.00000000 
      7.54000000     -24.96361910      93.16549483       0.00000000      -0.06780825      -0.46560544       0.00000000 
      7.55000000     -24.98734499      93.25404106       0.00000000      -0.06780825      -0.46560544       0.00000000 
      7.56000000     -25.01077133      93.34146933       0.00000000      -0.06780825      -0.46560544       0.00000000 
      7.57000000     -25.03389753      93.42777748       0.00000000      -0.06780825      -0.46560544       0.00000000 
      7.58000000     -25.05672302      93.51296337       0.00000000      -0.06780825      -0.46560544       0.00000000 
      7.59000000     -25.07924722      93.59702486       0.00000000      -0.06780825      -0.46560544       0.00000000 
      7.60000000     -25.10146960      93.67995987       0.00000000      -0.06780825      -0.46560544       0.00000000 
      7.61000000     -25.12338957      93.76176635       0.00000000      -0.06780825      -0.46560544       0.00000000 
      7.62000000     -25.14500662      93.84244225       0.00000000      -0.06780825      -0.46560544       0.00000000 
      7.63000000     -25.16632018      93.92198556       0.00000000      -0.06780825      -0.46560544       0.00000000 
      7.64000000     -25.18732975      94.00039432       0.00000000      -0.06780825      -0.46560544       0.00000000 
      7.65000000     -25.20803478      94.07766657       0.00000000      -0.06780825      -0.46560544       0.00000000 
      7.66000000     -25.22843478      94.15380039       0.00000000      -0.06780825      -0.46560544       0.00000000 
      7.67000000     -25.24852922      94.22879388       0.00000000      -0.06780825      -0.46560544       0.00000000 
      7.68000000     -25.26831762      94.30264519       0.00000000      -0.06780825      -0.46560544       0.00000000 
      7.69000000     -25.28779948      94.37535247       0.00000000      -0.06780825      -0.46560544       0.00000000 
      7.70000000     -25.30697431      94.44691391       0.00000000      -0.06780825      -0.46560544       0.00000000 
      7.71000000     -25.32584164      94.51732775       0.00000000      -0.06780825      -0.46560544       0.00000000 
      7.72000000     -25.34440100      94.58659222       0.00000000      -0.06780825      -0.46560544       0.00000000 
      7.73000000     -25.36265193      94.65470561       0.00000000      -0.06780825      -0.46560544       0.00000000 
      7.74000000     -25.38059397      94.72166621       0.00000000      -0.06780825      -0.46560544       0.00000000 
